# xmcd
#
# Track frame offsets:
# 150
# 16650
# 32595
# 44862
# 58537
# 72960
# 84862
# 102480
# 113427
# 132845
# 144610
# 159132
# 172200
# 185027
# 197937
# 211805
# 228662
# 240975
# 256860
# 273362
# 285100
# 299387
# 316150
# 331190
#
# Disc length: 4574 seconds
#
#
# Revision: 1
# Processed by: cddbd v1.5.2PL0 Copyright (c) Steve Scherf et al.
# Submitted via: FreeRIP 2.931 
#
DISCID=5011dc18
DTITLE=John Brack - Beautiful Country
DYEAR=1994
DGENRE=Country
TTITLE0=Green green grass of home
TTITLE1=Disco girl
TTITLE2=Es Praline
TTITLE3=Private angel
TTITLE4=Strong feelings
TTITLE5=Keep your hands away
TTITLE6=Lucille
TTITLE7=Oh lonesome me
TTITLE8=Borderline
TTITLE9=Feel so good
TTITLE10=Some old dreams
TTITLE11=I'm always gonna love you
TTITLE12=Heartaches by the number
TTITLE13=Last chance for a lonely heart
TTITLE14=Good morning country
TTITLE15=Loving you
TTITLE16=Riib mi ii
TTITLE17=another sad story
TTITLE18=Grandma
TTITLE19=Why can't you be on time
TTITLE20=We can talk it over
TTITLE21=Some broken hearts never mend
TTITLE22='Cause you still love me
TTITLE23=Yes I do
EXTD=YEAR: 1994 ID3G: 2
EXTT0=
EXTT1=
EXTT2=
EXTT3=
EXTT4=
EXTT5=
EXTT6=
EXTT7=
EXTT8=
EXTT9=
EXTT10=
EXTT11=
EXTT12=
EXTT13=
EXTT14=
EXTT15=
EXTT16=
EXTT17=
EXTT18=
EXTT19=
EXTT20=
EXTT21=
EXTT22=
EXTT23=
PLAYORDER=
